<svg xmlns="http://www.w3.org/2000/svg" width="233" height="36" viewBox="0 0 233 36" fill="none"><g id="Logo" clip-path="url(#clip0_603_1743)"><g id="Group"><path id="Vector" d="M65.4018 32.4481V15.1367H58.8529C58.2034 15.1367 57.8252 14.7585 57.8252 14.1089V10.3022C57.8252 9.65263 58.2034 9.27441 58.8529 9.27441H78.0842C78.7337 9.27441 79.1119 9.65263 79.1119 10.3022V14.1089C79.1119 14.7585 78.7337 15.1367 78.0842 15.1367H71.5354V32.4481C71.5354 33.0976 71.1572 33.4759 70.5076 33.4759H66.4295C65.78 33.4759 65.4018 33.0976 65.4018 32.4481Z" fill="#36C188"></path><path id="Vector_2" d="M100.604 27.2724L104.066 32.2426C104.547 32.962 104.238 33.4759 103.416 33.4759H98.7872C98.2404 33.4759 97.8293 33.2703 97.5539 32.7894L94.5364 27.9548H87.9547V32.444C87.9547 33.0936 87.5765 33.4718 86.927 33.4718H82.8818C82.2322 33.4718 81.854 33.0936 81.854 32.444V10.3063C81.854 9.65678 82.2322 9.27856 82.8818 9.27856H95.3257C102.183 9.27856 105.13 12.5016 105.13 18.3639V19.0134C105.13 22.9559 103.827 25.9733 100.604 27.2724ZM87.9547 22.1994H94.8119C97.3812 22.1994 98.9928 21.8582 98.9928 18.9435V18.3968C98.9928 15.4821 97.484 15.108 94.8119 15.108H87.9547V22.2035V22.1994Z" fill="#36C188"></path><path id="Vector_3" d="M108.214 25.147V17.6403C108.214 12.703 110.853 9.27856 116.337 9.27856H123.98C129.464 9.27856 132.103 12.7071 132.103 17.6403C132.103 18.257 131.725 18.5982 131.075 18.5982H127.03C126.38 18.5982 126.002 18.3926 126.002 18.0144V17.4307C126.002 15.3382 125.283 15.0997 123.98 15.0997H116.337C115.034 15.0997 114.315 15.3382 114.315 17.4307V25.3485C114.315 27.4039 115.137 27.6465 116.337 27.6465H123.98C125.18 27.6465 126.002 27.4081 126.002 25.3485V24.8346C126.002 24.185 126.38 23.8068 127.03 23.8068H131.075C131.725 23.8068 132.103 24.0453 132.103 24.4564V25.1429C132.103 30.0432 129.464 33.4718 123.98 33.4718H116.337C110.853 33.4718 108.214 30.0432 108.214 25.1429V25.147Z" fill="#36C188"></path></g><g id="Group_2"><path id="Vector_4" d="M49.4224 26.8777V17.258C49.4224 14.4666 47.0627 10.9106 44.2631 10.9106H35.3792L35.371 8.67009C35.371 8.43988 35.3546 8.20966 35.3258 7.98767C35.2025 5.88284 34.4337 5.17575 33.9157 4.13977C33.6526 3.63001 32.481 1.73073 30.1459 0.781089C29.4471 0.501542 28.6454 0.291881 27.9342 0.160329C27.9301 0.156218 27.926 0.156218 27.9178 0.156218C27.5108 0.053443 27.0874 0 26.6516 0H19.0997C16.3001 0 14.0267 2.27338 14.0267 5.07297V6.58171C14.0267 7.35046 13.3977 7.98356 12.6249 7.98356H5.07297C2.27338 7.98356 0 10.2528 0 13.0483V26.8201C0 29.1963 1.64029 31.1942 3.852 31.7451C4.41932 33.9239 6.40082 35.5272 8.75642 35.5231L44.3535 35.4779C47.149 35.4697 49.4224 33.1963 49.4183 30.4008L49.4101 27.0134C49.4183 26.964 49.4183 26.9229 49.4183 26.8777H49.4224ZM42.0678 26.8201C42.0678 27.593 41.4347 28.2179 40.666 28.2179H5.07297C4.35766 28.2179 3.76567 27.6835 3.68345 26.9887C3.67523 26.9353 3.67112 26.8777 3.67112 26.8201V13.0483C3.67112 12.2795 4.3001 11.6547 5.07297 11.6547H8.11511C8.31655 11.63 8.52209 11.6177 8.72764 11.6177H13.2703C15.7616 11.2929 17.6896 9.15519 17.6896 6.58171V5.07297C17.6896 4.3001 18.3227 3.67112 19.0915 3.67112H26.6434C27.4162 3.67112 28.0452 4.3001 28.0452 5.07297V10.7914C28.0452 13.5868 30.3186 15.8643 33.1141 15.8643H40.666C41.4347 15.8643 42.0678 16.4892 42.0678 17.2621V26.8201Z" fill="#36C188"></path><path id="Vector_5" d="M15.8808 19.5683C15.8808 21.4471 14.3515 22.9805 12.4646 22.9805C10.5776 22.9805 9.04834 21.4512 9.04834 19.5683C9.04834 17.6855 10.5817 16.1521 12.4646 16.1521C14.3474 16.1521 15.8808 17.6814 15.8808 19.5683Z" fill="#36C188"></path><path id="Vector_6" d="M28.4687 19.5683C28.4687 21.4471 26.9312 22.9805 25.0525 22.9805C23.1737 22.9805 21.6362 21.4512 21.6362 19.5683C21.6362 17.6855 23.1696 16.1521 25.0525 16.1521C26.9353 16.1521 28.4687 17.6814 28.4687 19.5683Z" fill="#36C188"></path></g><g id="Group_3"><path id="Vector_7" d="M154.113 14.4419H152.057V20.0164H150.405V14.4419H148.386V13.1675H154.109V14.4419H154.113Z" fill="#03624C"></path><path id="Vector_8" d="M159.058 17.1099H156.464V18.7461H159.531V20.0164H154.816V13.1675H159.544V14.4419H156.469V15.8848H159.063V17.1058L159.058 17.1099Z" fill="#03624C"></path><path id="Vector_9" d="M162.528 17.4675L161.85 18.2116V20.0164H160.197V13.1674H161.85V16.1849L162.425 15.3134L163.901 13.1633H165.94L163.626 16.1931L165.94 20.0123H163.984L162.524 17.4634L162.528 17.4675Z" fill="#03624C"></path><path id="Vector_10" d="M166.359 20.0164V13.1675H168.818C169.697 13.1675 170.368 13.3278 170.828 13.6526C171.288 13.9773 171.519 14.446 171.519 15.0585C171.519 15.4121 171.436 15.7163 171.276 15.9671C171.112 16.2178 170.873 16.4028 170.557 16.5221C170.914 16.6166 171.19 16.7934 171.379 17.0483C171.572 17.3073 171.667 17.6197 171.667 17.9897C171.667 18.6598 171.453 19.1654 171.029 19.5025C170.606 19.8396 169.977 20.0123 169.143 20.0164H166.363H166.359ZM168.012 16.0246H168.871C169.233 16.0246 169.488 15.9547 169.644 15.8273C169.796 15.6999 169.874 15.5066 169.874 15.2559C169.874 14.9681 169.792 14.7584 169.623 14.631C169.459 14.5036 169.188 14.4419 168.818 14.4419H168.008V16.0287L168.012 16.0246ZM168.012 17.1058V18.7461H169.093C169.389 18.7461 169.619 18.6762 169.78 18.5406C169.94 18.4049 170.018 18.2117 170.018 17.965C170.018 17.3936 169.734 17.1058 169.167 17.1058H168.012Z" fill="#03624C"></path><path id="Vector_11" d="M178.372 16.7317C178.372 17.3977 178.248 17.9897 178.002 18.5035C177.755 19.0174 177.402 19.4121 176.945 19.6916C176.489 19.9671 175.971 20.1068 175.387 20.1068C174.803 20.1068 174.285 19.9712 173.833 19.704C173.381 19.4367 173.032 19.0544 172.777 18.5529C172.526 18.0554 172.39 17.484 172.378 16.8345V16.448C172.378 15.778 172.501 15.186 172.748 14.6721C172.995 14.1582 173.348 13.7636 173.804 13.484C174.265 13.2045 174.787 13.0647 175.375 13.0647C175.963 13.0647 176.472 13.2045 176.929 13.4799C177.385 13.7553 177.739 14.15 177.989 14.6598C178.24 15.1695 178.368 15.7533 178.372 16.411V16.7276V16.7317ZM176.694 16.4439C176.694 15.7615 176.579 15.2476 176.353 14.8941C176.127 14.5405 175.802 14.3638 175.379 14.3638C174.553 14.3638 174.113 14.9845 174.068 16.2261V16.7276C174.063 17.3977 174.174 17.9157 174.396 18.2733C174.618 18.631 174.951 18.816 175.387 18.816C175.823 18.816 176.127 18.6392 176.353 18.2857C176.579 17.9321 176.694 17.4224 176.699 16.7564V16.4398L176.694 16.4439Z" fill="#03624C"></path><path id="Vector_12" d="M184.197 14.4419H182.142V20.0164H180.489V14.4419H178.471V13.1675H184.193V14.4419H184.197Z" fill="#03624C"></path><path id="Vector_13" d="M189.553 17.595H188.661V20.0164H187.009V13.1675H189.706C190.52 13.1675 191.153 13.3484 191.609 13.706C192.065 14.0678 192.296 14.5734 192.296 15.2312C192.296 15.7081 192.201 16.1027 192.008 16.4152C191.815 16.7276 191.514 16.9825 191.103 17.1757L192.534 19.9424V20.0123H190.766L189.558 17.5909L189.553 17.595ZM188.661 16.3247H189.706C190.018 16.3247 190.256 16.2425 190.413 16.0781C190.569 15.9136 190.651 15.6834 190.651 15.3874C190.651 15.0914 190.573 14.8612 190.413 14.6927C190.252 14.5241 190.018 14.4419 189.706 14.4419H188.661V16.3288V16.3247Z" fill="#03624C"></path><path id="Vector_14" d="M199.091 16.7317C199.091 17.3977 198.968 17.9897 198.722 18.5035C198.475 19.0174 198.121 19.4121 197.665 19.6916C197.209 19.9671 196.691 20.1068 196.107 20.1068C195.523 20.1068 195.005 19.9712 194.553 19.704C194.101 19.4367 193.751 19.0544 193.496 18.5529C193.246 18.0554 193.11 17.484 193.098 16.8345V16.448C193.098 15.778 193.221 15.186 193.468 14.6721C193.714 14.1582 194.068 13.7636 194.524 13.484C194.985 13.2045 195.507 13.0647 196.095 13.0647C196.682 13.0647 197.192 13.2045 197.649 13.4799C198.105 13.7553 198.458 14.15 198.709 14.6598C198.96 15.1695 199.087 15.7533 199.091 16.411V16.7276V16.7317ZM197.414 16.4439C197.414 15.7615 197.299 15.2476 197.073 14.8941C196.847 14.5405 196.522 14.3638 196.099 14.3638C195.272 14.3638 194.833 14.9845 194.787 16.2261V16.7276C194.783 17.3977 194.894 17.9157 195.116 18.2733C195.338 18.631 195.671 18.816 196.107 18.816C196.543 18.816 196.847 18.6392 197.073 18.2857C197.299 17.9321 197.414 17.4224 197.418 16.7564V16.4398L197.414 16.4439Z" fill="#03624C"></path><path id="Vector_15" d="M199.946 20.0164V13.1675H202.405C203.284 13.1675 203.955 13.3278 204.415 13.6526C204.875 13.9773 205.106 14.446 205.106 15.0585C205.106 15.4121 205.023 15.7163 204.863 15.9671C204.699 16.2178 204.46 16.4028 204.144 16.5221C204.501 16.6166 204.777 16.7934 204.966 17.0483C205.159 17.3073 205.254 17.6197 205.254 17.9897C205.254 18.6598 205.04 19.1654 204.616 19.5025C204.193 19.8396 203.564 20.0123 202.729 20.0164H199.95H199.946ZM201.595 16.0246H202.454C202.816 16.0246 203.071 15.9547 203.227 15.8273C203.379 15.6999 203.457 15.5066 203.457 15.2559C203.457 14.9681 203.375 14.7584 203.206 14.631C203.042 14.5036 202.771 14.4419 202.401 14.4419H201.591V16.0287L201.595 16.0246ZM201.595 17.1058V18.7461H202.676C202.972 18.7461 203.202 18.6762 203.363 18.5406C203.523 18.4049 203.601 18.2117 203.601 17.965C203.601 17.3936 203.317 17.1058 202.75 17.1058H201.595Z" fill="#03624C"></path><path id="Vector_16" d="M211.955 16.7317C211.955 17.3977 211.831 17.9897 211.585 18.5035C211.338 19.0174 210.985 19.4121 210.528 19.6916C210.072 19.9671 209.554 20.1068 208.97 20.1068C208.386 20.1068 207.868 19.9712 207.416 19.704C206.964 19.4367 206.615 19.0544 206.36 18.5529C206.109 18.0554 205.973 17.484 205.961 16.8345V16.448C205.961 15.778 206.084 15.186 206.331 14.6721C206.578 14.1582 206.931 13.7636 207.387 13.484C207.848 13.2045 208.37 13.0647 208.958 13.0647C209.546 13.0647 210.055 13.2045 210.512 13.4799C210.968 13.7553 211.322 14.15 211.572 14.6598C211.823 15.1695 211.951 15.7533 211.955 16.411V16.7276V16.7317ZM210.277 16.4439C210.277 15.7615 210.162 15.2476 209.936 14.8941C209.71 14.5405 209.385 14.3638 208.962 14.3638C208.136 14.3638 207.696 14.9845 207.651 16.2261V16.7276C207.646 17.3977 207.757 17.9157 207.979 18.2733C208.201 18.631 208.534 18.816 208.97 18.816C209.406 18.816 209.71 18.6392 209.936 18.2857C210.162 17.9321 210.277 17.4224 210.282 16.7564V16.4398L210.277 16.4439Z" fill="#03624C"></path><path id="Vector_17" d="M217.784 14.4419H215.728V20.0164H214.076V14.4419H212.057V13.1675H217.78V14.4419H217.784Z" fill="#03624C"></path><path id="Vector_18" d="M220.238 20.0164H218.594V13.1675H220.238V20.0164Z" fill="#03624C"></path><path id="Vector_19" d="M226.927 17.6979C226.906 18.1747 226.775 18.5941 226.54 18.9599C226.306 19.3258 225.977 19.6095 225.55 19.8109C225.126 20.0124 224.641 20.111 224.094 20.111C223.194 20.111 222.487 19.8191 221.969 19.2313C221.451 18.6434 221.192 17.8171 221.192 16.7482V16.4111C221.192 15.741 221.307 15.1532 221.541 14.6516C221.776 14.1501 222.113 13.7595 222.549 13.4841C222.988 13.2087 223.494 13.073 224.074 13.073C224.904 13.073 225.574 13.2909 226.076 13.7308C226.581 14.1665 226.869 14.7708 226.935 15.5396H225.291C225.278 15.1244 225.171 14.8243 224.974 14.6393C224.777 14.4584 224.477 14.368 224.07 14.368C223.663 14.368 223.358 14.5201 223.165 14.8284C222.972 15.1367 222.873 15.6259 222.865 16.3001V16.7852C222.865 17.517 222.956 18.0391 223.141 18.3515C223.325 18.664 223.638 18.8202 224.09 18.8202C224.468 18.8202 224.76 18.7297 224.962 18.553C225.163 18.3762 225.27 18.0925 225.282 17.702H226.923L226.927 17.6979Z" fill="#03624C"></path><path id="Vector_20" d="M231.239 18.1953C231.239 17.9528 231.153 17.7678 230.984 17.6321C230.812 17.4964 230.512 17.3567 230.084 17.2128C229.657 17.0689 229.303 16.9291 229.032 16.7935C228.144 16.3577 227.7 15.7575 227.7 14.9969C227.7 14.6187 227.811 14.2816 228.033 13.9939C228.255 13.702 228.567 13.48 228.97 13.3155C229.373 13.1552 229.829 13.073 230.335 13.073C230.84 13.073 231.268 13.1593 231.659 13.3361C232.049 13.5129 232.353 13.7636 232.567 14.0843C232.785 14.4091 232.892 14.7791 232.892 15.1984H231.247C231.247 14.9188 231.161 14.7051 230.993 14.5488C230.82 14.3967 230.59 14.3186 230.298 14.3186C230.006 14.3186 229.772 14.3844 229.599 14.5118C229.426 14.6434 229.344 14.8078 229.344 15.0093C229.344 15.1861 229.439 15.3423 229.628 15.4862C229.817 15.63 230.146 15.778 230.618 15.9301C231.091 16.0822 231.482 16.2467 231.786 16.4235C232.526 16.851 232.896 17.4389 232.896 18.1871C232.896 18.7873 232.67 19.2559 232.218 19.5971C231.765 19.9384 231.149 20.111 230.359 20.111C229.805 20.111 229.303 20.0124 228.851 19.8109C228.399 19.6095 228.061 19.3382 227.835 18.9928C227.609 18.6475 227.494 18.2487 227.494 17.7965H229.151C229.151 18.1624 229.245 18.4337 229.435 18.6064C229.624 18.7791 229.932 18.8654 230.359 18.8654C230.631 18.8654 230.849 18.8078 231.005 18.6886C231.161 18.5694 231.243 18.405 231.243 18.1912L231.239 18.1953Z" fill="#03624C"></path><path id="Vector_21" d="M153.936 29.4388C153.858 30.1582 153.599 30.7132 153.163 31.0955C152.727 31.4779 152.144 31.6711 151.416 31.6711C150.906 31.6711 150.458 31.5436 150.068 31.2888C149.677 31.0339 149.377 30.6762 149.163 30.2076C148.949 29.743 148.842 29.2086 148.838 28.6125V27.7245C148.838 27.1161 148.945 26.5776 149.159 26.1048C149.373 25.6361 149.677 25.2703 150.08 25.0154C150.479 24.7605 150.939 24.6331 151.461 24.6331C152.193 24.6331 152.773 24.8304 153.2 25.225C153.624 25.6197 153.87 26.1665 153.94 26.8653H153.356C153.212 25.7019 152.579 25.1223 151.461 25.1223C150.84 25.1223 150.347 25.3525 149.977 25.817C149.607 26.2816 149.426 26.9229 149.426 27.741V28.5796C149.426 29.3689 149.607 30.002 149.965 30.4707C150.322 30.9393 150.808 31.1778 151.42 31.1778C152.033 31.1778 152.481 31.0339 152.789 30.742C153.097 30.4501 153.286 30.0185 153.356 29.4388H153.94H153.936Z" fill="#03624C"></path><path id="Vector_22" d="M160.415 31.5723H159.831V28.2876H155.918V31.5723H155.338V24.7234H155.918V27.7984H159.831V24.7234H160.415V31.5723Z" fill="#03624C"></path><path id="Vector_23" d="M165.936 29.6484H162.828L162.121 31.5723H161.513L164.103 24.7234H164.653L167.243 31.5723H166.643L165.932 29.6484H165.936ZM163.009 29.1592H165.755L164.382 25.4305L163.009 29.1592Z" fill="#03624C"></path><path id="Vector_24" d="M168.838 31.0831H172.222V31.5723H168.259V24.7234H168.843V31.0831H168.838Z" fill="#03624C"></path><path id="Vector_25" d="M173.916 31.0831H177.299V31.5723H173.336V24.7234H173.92V31.0831H173.916Z" fill="#03624C"></path><path id="Vector_26" d="M182.187 28.2918H178.984V31.0873H182.668V31.5765H178.409V24.7275H182.647V25.2167H178.988V27.8026H182.191V28.2918H182.187Z" fill="#03624C"></path><path id="Vector_27" d="M188.982 31.5723H188.402L184.464 25.7141V31.5723H183.88V24.7234H184.464L188.407 30.5898V24.7234H188.982V31.5723Z" fill="#03624C"></path><path id="Vector_28" d="M195.663 30.7584C195.461 31.0421 195.149 31.2682 194.721 31.4244C194.294 31.5847 193.813 31.6628 193.286 31.6628C192.76 31.6628 192.275 31.5354 191.856 31.2764C191.436 31.0174 191.116 30.6556 190.886 30.187C190.655 29.7183 190.54 29.1757 190.536 28.5672V27.7039C190.536 26.7543 190.775 26.002 191.256 25.4552C191.737 24.9043 192.378 24.6289 193.188 24.6289C193.895 24.6289 194.462 24.8098 194.89 25.1674C195.317 25.5251 195.576 26.0225 195.654 26.6515H195.075C194.988 26.15 194.787 25.7677 194.462 25.5087C194.137 25.2497 193.714 25.1181 193.192 25.1181C192.551 25.1181 192.045 25.3442 191.671 25.8005C191.297 26.2569 191.112 26.8982 191.112 27.7245V28.5344C191.112 29.0565 191.202 29.5169 191.379 29.9156C191.556 30.3144 191.811 30.6269 192.139 30.8447C192.468 31.0626 192.851 31.1736 193.278 31.1736C193.776 31.1736 194.203 31.0955 194.561 30.9393C194.791 30.8365 194.964 30.7132 195.079 30.5775V28.8098H193.241V28.3206H195.658V30.7584H195.663Z" fill="#03624C"></path><path id="Vector_29" d="M201.089 28.2918H197.887V31.0873H201.57V31.5765H197.311V24.7275H201.549V25.2167H197.891V27.8026H201.093V28.2918H201.089Z" fill="#03624C"></path></g><path id="Vector_30" d="M142.541 9.96094H141.702V36H142.541V9.96094Z" fill="#03624C"></path></g><defs><clipPath id="clip0_603_1743"><rect width="232.888" height="36" fill="white"></rect></clipPath></defs></svg>